<svg xmlns="http://www.w3.org/2000/svg" xmlns:xlink="http://www.w3.org/1999/xlink" width="500" zoomAndPan="magnify" viewBox="0 0 375 374.999991" height="500" preserveAspectRatio="xMidYMid meet" version="1.0"><defs><clipPath id="4da63ab886"><path d="M 75.484375 16.484375 L 299.734375 16.484375 L 299.734375 358.484375 L 75.484375 358.484375 Z M 75.484375 16.484375 " clip-rule="nonzero"/></clipPath></defs><g clip-path="url(#4da63ab886)"><path fill="#545454" d="M 187.5 16.484375 C 125.667969 16.484375 75.546875 66.605469 75.546875 128.4375 C 75.546875 209.609375 187.5 358.507812 187.5 358.507812 C 187.5 358.507812 299.453125 209.609375 299.453125 128.4375 C 299.453125 66.605469 249.328125 16.484375 187.5 16.484375 " fill-opacity="1" fill-rule="nonzero"/></g><path fill="#ffffff" d="M 255.09375 128.4375 C 255.09375 165.769531 224.828125 196.03125 187.5 196.03125 C 150.167969 196.03125 119.902344 165.769531 119.902344 128.4375 C 119.902344 91.105469 150.167969 60.84375 187.5 60.84375 C 224.828125 60.84375 255.09375 91.105469 255.09375 128.4375 " fill-opacity="1" fill-rule="nonzero"/></svg>