<svg xmlns="http://www.w3.org/2000/svg" xmlns:xlink="http://www.w3.org/1999/xlink" width="500" zoomAndPan="magnify" viewBox="0 0 375 374.999991" height="500" preserveAspectRatio="xMidYMid meet" version="1.0"><defs><clipPath id="97c550c8e7"><path d="M 75.484375 16.484375 L 299.734375 16.484375 L 299.734375 358.484375 L 75.484375 358.484375 Z M 75.484375 16.484375 " clip-rule="nonzero"/></clipPath></defs><g clip-path="url(#97c550c8e7)"><path fill="#d20a15" d="M 187.609375 16.484375 C 125.71875 16.484375 75.546875 66.605469 75.546875 128.429688 C 75.546875 209.59375 187.609375 358.484375 187.609375 358.484375 C 187.609375 358.484375 299.671875 209.59375 299.671875 128.429688 C 299.671875 66.605469 249.5 16.484375 187.609375 16.484375 " fill-opacity="1" fill-rule="nonzero"/></g><path fill="#ffffff" d="M 255.273438 128.429688 C 255.273438 165.757812 224.976562 196.019531 187.609375 196.019531 C 150.242188 196.019531 119.949219 165.757812 119.949219 128.429688 C 119.949219 91.101562 150.242188 60.839844 187.609375 60.839844 C 224.976562 60.839844 255.273438 91.101562 255.273438 128.429688 " fill-opacity="1" fill-rule="nonzero"/></svg>